<mxfile host="app.diagrams.net" modified="2023-09-15T20:03:20.173Z" agent="Mozilla/5.0 (X11; Linux x86_64; rv:106.0) Gecko/20100101 Firefox/106.0" version="21.7.4" etag="cdHcM_oLH-4JBIYfQIit" type="github">
  <diagram name="PÃ¡gina-1" id="N0EDhrar59gtSNqKn8Ru">
    <mxGraphModel>
      <root>
        <mxCell id="0" />
        <mxCell id="1" parent="0" />
      </root>
    </mxGraphModel>
  </diagram>
</mxfile>
